<svg width="22" height="23" xmlns="http://www.w3.org/2000/svg" xmlns:xlink="http://www.w3.org/1999/xlink" xml:space="preserve" overflow="hidden"><g transform="translate(-258 -315)"><path d="M16.7979 3.20696 17.4167 3.20696 17.4167 1.83333 4.59021 1.83333 4.59021 3.20833 5.18604 3.20833C5.43813 5.75048 6.90479 9.46115 9.03398 10.9956 6.90387 12.5311 5.41521 16.2406 5.18604 18.783L4.59021 18.783 4.59021 20.158 17.4167 20.158 17.4167 18.783 16.7979 18.783C16.5688 16.2406 15.0792 12.5301 12.95 10.9956 15.0803 9.45977 16.5688 5.7491 16.7979 3.20696ZM15.416 3.20696C15.2894 4.22984 15.0298 5.23183 14.6438 6.1875L7.35625 6.1875C6.97013 5.23139 6.70594 4.23046 6.56998 3.20833ZM9.83721 12.1099C9.92693 12.0452 10.0085 11.97 10.0801 11.8857L10.5485 12.4852 10.5485 16.5 8.26765 18.7809 6.56723 18.7809C6.81038 16.5 8.15994 13.3183 9.83721 12.1099ZM15.4163 18.7809 13.7461 18.7809 11.4652 16.5 11.4652 12.469 11.9137 11.896C11.9828 11.9758 12.0608 12.0473 12.1463 12.1092 13.8238 13.3183 15.1734 16.5 15.4163 18.7809Z" fill="#FEBF0F" transform="matrix(1 0 0 1.04545 258 315)"/></g></svg>